<svg width="60" height="60" fill="none" xmlns="http://www.w3.org/2000/svg"><circle cx="30" cy="30" r="30" fill="#D1CFD3"/><path d="M23.708 14C18.912 14 15 17.912 15 22.708v12.584C15 40.088 18.912 44 23.708 44h12.584C41.088 44 45 40.088 45 35.292V22.708C45 17.912 41.088 14 36.292 14H23.708zm0 2.308h12.584c3.547 0 6.4 2.848 6.4 6.4v12.584c0 3.547-2.848 6.4-6.4 6.4H23.708a6.382 6.382 0 01-6.4-6.4V22.708c0-3.547 2.848-6.4 6.4-6.4zm14.946 2.307a1.731 1.731 0 100 3.463 1.731 1.731 0 000-3.463zM30 20.923c-4.449 0-8.077 3.628-8.077 8.077s3.628 8.077 8.077 8.077 8.077-3.628 8.077-8.077-3.628-8.077-8.077-8.077zm0 2.308c3.2 0 5.77 2.569 5.77 5.769S33.2 34.77 30 34.77c-3.2 0-5.77-2.57-5.77-5.77 0-3.2 2.57-5.77 5.77-5.77z" fill="#000"/></svg>