<svg width="40" height="40" fill="none" xmlns="http://www.w3.org/2000/svg"><circle cx="20" cy="20" r="20" fill="#DC8503"/><path fill-rule="evenodd" clip-rule="evenodd" d="M12 20.001c0-.232.194-.42.432-.42h10.534c.239 0 .432.188.432.42a.426.426 0 01-.432.421H12.432a.427.427 0 01-.432-.42z" fill="#fff"/><path fill-rule="evenodd" clip-rule="evenodd" d="M18.76 16.02a.44.44 0 01.611-.008l3.898 3.691a.413.413 0 01.008.596.44.44 0 01-.611.008l-3.898-3.692a.413.413 0 01-.008-.595z" fill="#fff"/><path fill-rule="evenodd" clip-rule="evenodd" d="M23.287 19.72a.413.413 0 01-.032.594l-4.213 3.692a.44.44 0 01-.61-.032.413.413 0 01.031-.594l4.214-3.692a.44.44 0 01.61.032zm-8.462-7.718a.423.423 0 00-.425.42v2.948c0 .232.19.42.425.42a.423.423 0 00.425-.42v-2.947a.423.423 0 00-.425-.421zm0 12.207a.423.423 0 00-.425.421v2.947c0 .232.19.42.425.42a.423.423 0 00.425-.42V24.63a.423.423 0 00-.425-.421zm12.75 3.789a.423.423 0 01-.425-.42V12.421c0-.232.19-.421.425-.421.234 0 .425.189.425.421v15.155c0 .233-.19.421-.425.421z" fill="#fff"/><path fill-rule="evenodd" clip-rule="evenodd" d="M14.4 27.58c0-.233.198-.422.442-.422h12.716c.244 0 .442.189.442.421a.432.432 0 01-.442.421H14.842a.432.432 0 01-.442-.42zm0-15.16c0 .233.198.422.442.422h12.716A.432.432 0 0028 12.42a.432.432 0 00-.442-.421H14.842a.432.432 0 00-.442.42z" fill="#fff"/></svg>