<svg width="148" height="51" fill="none" xmlns="http://www.w3.org/2000/svg"><path fill-rule="evenodd" clip-rule="evenodd" d="M1.573 20.71c-3.824-7.77.12-11.867 7.394-14.955C27.093-1.94 62.283-.506 82.32 1.996c4.67.583 52.786 7.15 37.977 18.241-2.318 1.737-5.061 2.778-7.729 3.832 11.11-4.457 15.803-9.552 1.413-15.046C91.567.465 31.058-3.34 9.011 5.86 1.737 8.895-2.196 12.948 1.573 20.71z" fill="#23262F"/><path d="M54.577 8.732a7925.2 7925.2 0 01-5.852 12.295c-3.358 7.16-5.037 11.482-5.037 12.963 0 .173.081.352.241.537.16.185.34.278.537.278 1.013 0 2.938-.582 4.609-2.392a22.367 22.367 0 003.033-4.109c.319-.375 1.41-2.33.247-.24-.617 1.432-1.568 2.901-2.852 4.408-1.827 2.123-3.568 3.185-5.222 3.185-1.876 0-2.814-.914-2.814-2.74 0-1.877 1.222-5.223 3.666-10.038-1.802 2.37-3.271 4.185-4.407 5.444-4.543 5.013-8.148 7.519-10.815 7.519-1.876 0-2.814-.975-2.814-2.926 0-1.481.975-3.876 2.925-7.185.025-.074 1.828-2.913 5.408-8.519 1.95-3.061 2.926-5.024 2.926-5.888 0-.765-.488-1.407-1.463-1.926-.976-.518-2.204-.777-3.686-.777-3.9 0-7.839 1.036-11.814 3.11-3.432 1.754-6.358 3.963-8.777 6.63-2.272 2.518-3.408 4.617-3.408 6.296 0 2.123 1.198 3.185 3.593 3.185 1.728 0 3.654-.407 5.777-1.222a23.146 23.146 0 006.037-3.444c1.9-1.508 3.897-2.695 5.626-4.965 1.505-1.976 2.844-3.764 3.205-4.829.634-1.87.727-1.903.206-.28-.363 1.13-1.16 2.642-2.445 4.518-1.728 2.494-3.728 4.642-6 6.444a22.392 22.392 0 01-6.332 3.519c-2.1.74-4.062 1.11-5.889 1.11-3.383 0-5.074-1.48-5.074-4.443 0-2.173 1.123-4.55 3.37-7.13s5.123-4.722 8.63-6.426c3.9-1.876 7.913-2.814 12.036-2.814 5.407 0 8.111 1.604 8.111 4.814 0 1.482-.975 3.89-2.926 7.223-.568.962-2.382 3.814-5.444 8.554-1.975 3.013-2.963 4.84-2.963 5.482 0 .692.531 1.037 1.593 1.037.913 0 2.351-.753 4.314-2.26 1.963-1.505 3.784-3.283 5.463-5.332 2.37-2.89 5.148-6.531 8.333-10.926l3.704-7.26c.123-.345.42-.604.889-.777.963-.346 1.457-.518 1.481-.518.173 0 .26.086.26.259 0 .123-.062.309-.186.556zm16.778 12.444c.099-.963.377-1.809.833-2.537a6.689 6.689 0 011.796-1.889c.741-.53 1.556-.988 2.445-1.37.889-.383 1.82-.685 2.796-.907.976-.223 1.92-.396 2.834-.52a56.836 56.836 0 002.98-.48c3.346-.628 3.213-3.946 3.415-4.03.232.231-.743 3.51-1.34 4.289-.284.37-.605.691-.963.963s-.697.518-1.018.74c-.396.247-1.032.439-1.908.574-.877.136-1.82.26-2.834.37-1.012.112-1.987.223-2.925.334-.938.111-1.654.278-2.148.5-1.136.47-1.932 1.062-2.389 1.778-.457.716-.71 1.45-.76 2.204a6.314 6.314 0 00.242 2.203c.394 1.347 1.203 2.539 1.203 3.89 0 .937-.228 1.9-.685 2.888a11.515 11.515 0 01-1.74 2.704 10.398 10.398 0 01-2.278 2c-.815.518-1.58.777-2.297.777-1.9 0-2.851-.95-2.851-2.852 0-.987.166-1.938.5-2.852a7.973 7.973 0 011.389-2.425 6.674 6.674 0 012.147-1.685c2.188-1.095 3.314-.402 3.297-.408-1.654-.533-3.28 2.01-4 3.26-.47.814-.84 1.69-1.111 2.63-.272.937-.407 1.789-.407 2.554 0 .79.37 1.185 1.11 1.185.47 0 .957-.203 1.463-.61.507-.408.994-.939 1.463-1.593a15.91 15.91 0 001.296-2.167c.395-.79.704-1.58.927-2.37.222-.79.34-1.531.351-2.222.025-1.378-.995-3.35-.833-4.926z" fill="#23262F"/><path fill-rule="evenodd" clip-rule="evenodd" d="M53.65 45.803c10.41-.622 28.082 1.736 39.207 2.66 10.072.838 49.381 5.301 54.371-3.5l.291-.616-.286.618c-4.928 8.829-44.453 4.855-54.41 3.868-10.968-1.088-28.883-3.575-39.173-3.03z" fill="#23262F"/><path d="M63.096 26.028c0 1.704-.765 3.691-2.296 5.962-1.654 2.445-3.272 3.667-4.852 3.667-.84 0-1.531-.222-2.074-.667-1.037 2.247-2.358 4.963-3.963 8.148-.074.148-.259.303-.555.463-.297.16-.568.241-.815.241-.396 0-.593-.148-.593-.444 0-.1.025-.223.074-.37l7.148-16.444c.074-.173.111-.334.111-.482 0-.395-.148-.593-.444-.593-.366 0-1.347-.318-3.607 1.203.717-1.037 3.644-2.536 4.755-2.536.864 0 1.296.519 1.296 1.555 0 .89-.234 1.803-.704 2.741 1.852-2.864 3.395-4.296 4.63-4.296 1.259 0 1.889.617 1.889 1.852zm-2.074-.297c0-.419-.111-.629-.333-.629-.37 0-1.198.852-2.482 2.555a57.886 57.886 0 00-3.148 4.704c-.296.692-.592 1.37-.889 2.037.346.321.74.481 1.185.481 1.185 0 2.457-1.234 3.815-3.703 1.235-2.247 1.852-4.062 1.852-5.445zm25.184-1.073c-2.74 5.185-4.11 8.37-4.11 9.555 0 .395.123.593.37.593.553 0 3.906-3.01 4.266-3.404-.272.617-1.418 1.968-2.155 2.737-.967 1.008-1.901 1.518-2.815 1.518-.37 0-.704-.147-1-.444-.37-.32-.555-.753-.555-1.296s.21-1.383.63-2.519c-2.173 2.815-3.815 4.223-4.926 4.223-1.112 0-1.667-.544-1.667-1.63 0-.617.506-2.012 1.519-4.185a199.183 199.183 0 011.888-4.037c.536-1.473-4.303-.399 2.556-1.63.197-.049.345-.012.444.112.1.098.1.246 0 .444a721.784 721.784 0 00-2.222 4.481c-1.383 2.84-2.074 4.47-2.074 4.889 0 .222.123.333.37.333.618 0 2.433-2.037 5.445-6.11.543-1.112 1.11-2.26 1.703-3.445.198-.42.42-.63.667-.63.099 0 .302-.012.611-.037a10.4 10.4 0 01.611-.037c.47 0 .617.173.444.519zm10.259 1.481c0 .617-.179 1.092-.537 1.426-.358.333-.734.5-1.13.5-.74 0-1.11-.358-1.11-1.074 0-.346.19-.673.573-.982.383-.308.574-.537.574-.685 0-.247-.123-.37-.37-.37-.84 0-1.864 1.26-3.074 3.777-1.11 2.37-1.667 4.111-1.667 5.223 0 .542.235.814.704.814 2.239 0 7.264-5.954 3.02-1.057-1 1.153-2.403 1.946-3.39 1.946-1.605 0-2.408-1.025-2.408-3.074 0-1.778.784-3.63 2.352-5.555 1.568-1.926 3.105-2.89 4.611-2.89 1.235 0 1.852.667 1.852 2zm-34.99 14.223h.077c.272.002.52.064.743.187.224.123.398.292.523.51.123.215.186.457.186.724 0 .269-.063.513-.188.731a1.33 1.33 0 01-.518.51 1.52 1.52 0 01-.735.19h-.088v.478h-.459v-.478h-.069c-.274 0-.523-.062-.748-.185a1.33 1.33 0 01-.524-.51 1.449 1.449 0 01-.186-.731c0-.27.062-.514.186-.731.125-.217.3-.388.524-.51.225-.123.474-.185.748-.185h.07v-.504h.458v.504zm-.528.369c-.309 0-.553.093-.733.28-.18.187-.27.446-.27.778 0 .334.089.593.268.778.18.185.426.278.74.278h.065V40.73h-.07zm.528 0v2.114h.07c.314 0 .56-.095.737-.285.177-.19.266-.449.266-.776 0-.323-.09-.58-.266-.769-.177-.19-.426-.284-.747-.284h-.06zm4.111 1.89H64.08l-.338.927h-.488l1.372-3.545h.414l1.375 3.545h-.486l-.343-.928zm-1.363-.385h1.222l-.612-1.656-.61 1.656zm4.868-1.849h-1.733v1.062h.893c.376.005.668.1.878.285.211.185.316.436.316.754 0 .32-.106.575-.317.765-.213.19-.502.288-.87.295h-1.376v-3.545h2.209v.384zm-1.733 1.446v1.33h.866c.234 0 .418-.06.549-.185a.65.65 0 00.196-.496.608.608 0 00-.188-.471c-.127-.116-.306-.175-.537-.178h-.886zm3.202.329v1.386h-.474v-3.545h1.326c.393 0 .7.1.924.298.223.198.334.46.334.787 0 .343-.108.608-.326.795-.22.186-.531.279-.938.279h-.846zm0-.384h.852c.253 0 .447-.059.582-.177.135-.117.202-.288.202-.51a.664.664 0 00-.202-.507c-.135-.126-.32-.192-.555-.197h-.879v1.39zm4.98-1.775h.474v3.545h-.474v-2.731l-1.77 2.73h-.476v-3.544h.477v2.73l1.77-2.73zm2.27 1.944h-.436v1.6H76.9v-3.544h.474v1.56h.37L79 40.003h.59l-1.373 1.714 1.473 1.83h-.58l-1.3-1.6zm4.299.673h-1.506l-.338.928h-.489l1.373-3.545h.414l1.375 3.545h-.486l-.343-.928zm-1.363-.384h1.222l-.612-1.656-.61 1.656zm5.791-2.233l1.175 2.892 1.174-2.892h.615v3.545h-.474v-1.38l.044-1.49-1.18 2.87h-.363l-1.176-2.863.047 1.483v1.38h-.475v-3.545h.613zm5.831 1.91h-1.556v1.25h1.808v.385h-2.282v-3.545h2.258v.384h-1.784v1.142h1.556v.384zm3.033-1.526h-1.733v1.062h.893c.376.005.668.1.88.285.21.185.315.436.315.754 0 .32-.106.575-.318.765-.212.19-.502.288-.87.295h-1.376v-3.545h2.21v.384zm-1.733 1.446v1.33h.867c.235 0 .418-.06.549-.185a.647.647 0 00.196-.496.608.608 0 00-.189-.471c-.126-.116-.304-.175-.536-.178h-.887zm4.76.08H96.87v1.25h1.808v.385h-2.283v-3.545h2.259v.384H96.87v1.142h1.556v.384zm3.56-1.91v3.545h-.475v-3.16h-1.288l-.064 1.404c-.024.47-.074.825-.147 1.062-.072.237-.18.41-.322.522-.142.11-.33.168-.568.172h-.155v-.384l.098-.005a.522.522 0 00.353-.147c.083-.087.146-.225.189-.415a5.62 5.62 0 00.09-.876l.075-1.718h2.214zm1.316 1.446h.892c.376.005.669.1.879.285.211.185.316.436.316.754 0 .32-.106.575-.318.765-.213.19-.501.288-.869.295h-1.374v-3.545h.474v1.446zm0 .384v1.33h.866c.235 0 .417-.06.549-.185a.647.647 0 00.196-.496.61.61 0 00-.188-.471c-.127-.116-.306-.175-.538-.178h-.885zm5.475 1.715h-.476v-1.635h-1.811v1.635h-.475v-3.545h.475v1.526h1.811v-1.526h.476v3.545zm1.339-2.1h.892c.376.006.669.1.879.286.211.185.316.436.316.754 0 .32-.106.575-.319.765-.212.19-.501.288-.868.295h-1.375v-3.545h.475v1.446zm0 .385v1.33h.865c.235 0 .419-.06.55-.185a.65.65 0 00.196-.496.607.607 0 00-.189-.471c-.126-.116-.305-.175-.537-.178h-.885zm2.995 1.715h-.473v-3.545h.473v3.545zm2.093-2.186l.861-1.359h.557l-1.134 1.757 1.162 1.788h-.563l-.883-1.383-.889 1.383h-.56l1.165-1.788-1.138-1.757h.555l.867 1.359zm6.272-1h.076c.272.002.519.064.743.187.225.123.398.292.523.51.124.215.186.457.186.724 0 .269-.062.513-.188.731a1.327 1.327 0 01-.518.51 1.525 1.525 0 01-.735.19h-.087v.478h-.459v-.478h-.069c-.275 0-.525-.062-.749-.185a1.327 1.327 0 01-.523-.51 1.449 1.449 0 01-.186-.731c0-.27.062-.514.186-.731.124-.217.299-.388.523-.51.224-.123.474-.185.749-.185h.069v-.504h.459v.504zm-.528.369c-.31 0-.554.093-.734.28-.181.187-.27.446-.27.778 0 .334.089.593.268.778.18.185.426.278.741.278h.064V40.73h-.069zm.528 0v2.114h.069c.314 0 .56-.095.737-.285.177-.19.265-.449.265-.776 0-.323-.088-.58-.265-.769-.177-.19-.425-.284-.746-.284h-.06zm4.11 1.89h-1.506l-.338.927h-.489l1.373-3.545h.414l1.375 3.545h-.486l-.343-.928zm-1.363-.385h1.223l-.613-1.656-.61 1.656zm5.293.189c-.045.374-.184.663-.421.866-.236.204-.549.306-.941.306-.425 0-.765-.15-1.021-.45-.255-.3-.384-.703-.384-1.207v-.34c0-.33.06-.62.179-.87.12-.25.288-.442.507-.576a1.43 1.43 0 01.76-.201c.383 0 .689.105.919.315.23.21.364.501.402.873h-.477c-.04-.283-.129-.487-.266-.614-.139-.127-.331-.19-.578-.19-.302 0-.54.11-.711.332-.172.22-.258.534-.258.942v.343c0 .386.081.691.244.919a.795.795 0 00.684.34c.263 0 .465-.059.606-.176.14-.117.234-.321.279-.612h.477zm2.63.195h-1.506l-.338.928h-.488l1.372-3.545h.414l1.375 3.545h-.486l-.343-.928zm-1.363-.384h1.222l-.612-1.656-.61 1.656zm5.958 2.181h-.471v-.87h-2.58v.873h-.474l-.003-1.256h.294a1.85 1.85 0 00.369-.692c.092-.29.149-.608.172-.954l.079-1.515h2.149v3.16h.469l-.004 1.254zm-2.693-1.253h1.752v-2.777h-1.217l-.052 1.042a4.305 4.305 0 01-.164 1.041 2.439 2.439 0 01-.319.694zm5.965-1.274c0 .347-.06.65-.178.91s-.286.457-.503.593a1.406 1.406 0 01-.761.204c-.283 0-.533-.068-.752-.206a1.349 1.349 0 01-.51-.586 2.075 2.075 0 01-.186-.884v-.255c0-.341.06-.643.18-.904s.29-.461.51-.6c.219-.139.471-.209.754-.209.287 0 .542.07.76.206.221.137.39.336.508.597.118.26.178.564.178.91v.224zm-.471-.23c0-.419-.086-.742-.258-.966-.17-.225-.41-.337-.717-.337-.3 0-.536.112-.708.337-.172.224-.26.536-.265.935v.26c0 .408.086.728.26.96a.846.846 0 00.717.35c.306 0 .543-.11.711-.33.168-.22.254-.534.26-.945v-.263zm1.181 1.888v-3.545h1.176c.39 0 .683.08.879.24.197.158.295.394.295.706a.71.71 0 01-.143.44.915.915 0 01-.391.296.838.838 0 01.462.305c.112.151.168.33.168.536 0 .319-.104.568-.314.75-.208.18-.503.272-.885.272h-1.247zm.475-1.65v1.266h.781c.221 0 .396-.056.523-.168a.588.588 0 00.191-.463c0-.424-.235-.636-.706-.636h-.789zm0-.385h.715c.207 0 .373-.05.498-.153a.51.51 0 00.186-.416c0-.195-.058-.336-.173-.424-.115-.089-.29-.133-.525-.133h-.701v1.126z" fill="#23262F"/></svg>