<svg width="149" height="53" fill="none" xmlns="http://www.w3.org/2000/svg"><path clip-rule="evenodd" d="M2.573 21.71c-3.824-7.77.12-11.867 7.394-14.955C28.093-.94 63.283.494 83.32 2.996c4.67.583 52.786 7.15 37.977 18.241-2.318 1.737-5.061 2.778-7.729 3.832 11.11-4.457 15.803-9.552 1.413-15.046C92.567 1.465 32.058-2.34 10.011 6.86 2.737 9.895-1.196 13.948 2.573 21.71v0z" stroke="#7B7A91" stroke-miterlimit="22.926"/><path d="M55.577 9.733a7959.338 7959.338 0 01-5.852 12.295c-3.358 7.16-5.037 11.482-5.037 12.963 0 .173.081.352.241.537.16.185.34.278.537.278 1.013 0 2.938-.582 4.609-2.392a22.365 22.365 0 003.033-4.11c.319-.374 1.41-2.33.247-.239-.617 1.432-1.568 2.901-2.852 4.408-1.827 2.123-3.568 3.185-5.222 3.185-1.876 0-2.814-.914-2.814-2.74 0-1.877 1.222-5.223 3.666-10.038-1.802 2.37-3.271 4.185-4.407 5.445-4.543 5.012-8.148 7.518-10.815 7.518-1.876 0-2.814-.976-2.814-2.926 0-1.481.975-3.876 2.925-7.185.025-.074 1.828-2.913 5.408-8.519 1.95-3.061 2.926-5.024 2.926-5.888 0-.765-.488-1.407-1.463-1.926-.976-.518-2.204-.777-3.686-.777-3.9 0-7.839 1.036-11.814 3.11-3.432 1.754-6.358 3.963-8.777 6.63-2.272 2.518-3.408 4.617-3.408 6.296 0 2.123 1.198 3.185 3.593 3.185 1.728 0 3.654-.407 5.777-1.222a23.148 23.148 0 006.037-3.444c1.9-1.508 3.897-2.695 5.626-4.965 1.505-1.977 2.844-3.764 3.205-4.829.634-1.87.727-1.903.206-.28-.363 1.13-1.16 2.642-2.445 4.518-1.728 2.494-3.728 4.642-6 6.444a22.387 22.387 0 01-6.332 3.519c-2.1.74-4.062 1.11-5.889 1.11-3.383 0-5.074-1.48-5.074-4.443 0-2.173 1.123-4.55 3.37-7.13s5.123-4.722 8.63-6.425c3.9-1.877 7.913-2.815 12.036-2.815 5.407 0 8.111 1.604 8.111 4.814 0 1.482-.975 3.89-2.926 7.223-.568.962-2.382 3.814-5.444 8.555-1.975 3.012-2.963 4.839-2.963 5.481 0 .692.531 1.037 1.593 1.037.913 0 2.351-.753 4.314-2.26 1.963-1.505 3.784-3.283 5.463-5.332 2.37-2.89 5.148-6.531 8.333-10.926l3.704-7.26c.123-.345.42-.604.889-.777.963-.346 1.457-.518 1.481-.518.173 0 .26.086.26.259 0 .123-.062.309-.186.556zm16.778 12.444c.099-.963.377-1.809.833-2.537a6.69 6.69 0 011.796-1.889c.741-.53 1.556-.988 2.445-1.37.889-.383 1.82-.685 2.796-.907.976-.223 1.92-.396 2.834-.52a56.836 56.836 0 002.98-.48c3.346-.628 3.213-3.946 3.415-4.03.232.231-.743 3.51-1.34 4.289-.284.37-.605.691-.963.963s-.697.518-1.018.74c-.396.247-1.032.439-1.908.574a64.14 64.14 0 01-2.834.37c-1.012.112-1.987.223-2.925.334-.938.111-1.654.278-2.148.5-1.136.47-1.932 1.062-2.389 1.778-.457.716-.71 1.45-.76 2.204a6.314 6.314 0 00.242 2.203c.394 1.347 1.203 2.539 1.203 3.89 0 .937-.228 1.9-.685 2.888a11.517 11.517 0 01-1.74 2.704 10.4 10.4 0 01-2.278 2c-.815.518-1.58.777-2.297.777-1.9 0-2.851-.95-2.851-2.852 0-.987.166-1.938.5-2.851a7.973 7.973 0 011.389-2.426 6.673 6.673 0 012.147-1.685c2.188-1.095 3.314-.402 3.297-.408-1.654-.533-3.28 2.01-4 3.26-.47.814-.84 1.69-1.111 2.63-.272.937-.407 1.789-.407 2.554 0 .79.37 1.185 1.11 1.185.47 0 .957-.203 1.463-.61.507-.408.994-.939 1.463-1.593.47-.654.902-1.377 1.296-2.167.395-.79.704-1.58.927-2.37.222-.79.34-1.531.351-2.222.025-1.378-.995-3.35-.833-4.926z" fill="#7B7A91" stroke="#7B7A91" stroke-width=".21" stroke-miterlimit="22.926"/><path clip-rule="evenodd" d="M54.65 46.804c10.41-.622 28.082 1.736 39.207 2.66 10.072.839 49.381 5.301 54.371-3.5l.291-.616-.286.618c-4.928 8.829-44.453 4.855-54.41 3.868-10.968-1.088-28.883-3.575-39.173-3.03v0z" stroke="#7B7A91" stroke-miterlimit="22.926"/><path d="M64.096 27.028c0 1.704-.765 3.691-2.297 5.962-1.653 2.445-3.271 3.667-4.851 3.667-.84 0-1.531-.222-2.074-.667-1.037 2.247-2.358 4.963-3.963 8.148-.074.148-.259.303-.555.463-.297.16-.568.241-.815.241-.396 0-.593-.148-.593-.444 0-.1.025-.223.074-.37l7.148-16.444c.074-.173.111-.334.111-.482 0-.395-.148-.593-.444-.593-.366 0-1.347-.318-3.607 1.203.717-1.037 3.644-2.536 4.755-2.536.864 0 1.296.519 1.296 1.555 0 .89-.234 1.803-.704 2.741 1.852-2.864 3.395-4.296 4.63-4.296 1.259 0 1.889.617 1.889 1.852zm-2.074-.297c0-.419-.111-.629-.333-.629-.37 0-1.198.852-2.482 2.555a57.886 57.886 0 00-3.148 4.704c-.296.692-.592 1.37-.889 2.037.346.321.74.481 1.185.481 1.185 0 2.457-1.234 3.815-3.703 1.235-2.247 1.852-4.062 1.852-5.445zm25.184-1.074c-2.74 5.185-4.11 8.37-4.11 9.555 0 .395.123.593.37.593.553 0 3.906-3.01 4.266-3.404-.272.617-1.418 1.968-2.155 2.737-.967 1.008-1.901 1.519-2.815 1.519-.37 0-.704-.148-1-.445-.37-.32-.555-.753-.555-1.296s.21-1.383.63-2.519c-2.173 2.815-3.815 4.223-4.926 4.223-1.112 0-1.667-.544-1.667-1.63 0-.617.506-2.012 1.519-4.185a199.191 199.191 0 011.888-4.037c.536-1.473-4.303-.399 2.556-1.63.197-.049.345-.012.444.112.1.098.1.246 0 .444a721.784 721.784 0 00-2.222 4.481c-1.383 2.84-2.074 4.47-2.074 4.889 0 .222.123.333.37.333.618 0 2.433-2.037 5.445-6.11.543-1.112 1.11-2.26 1.703-3.445.198-.42.42-.63.667-.63.099 0 .302-.012.611-.037a10.4 10.4 0 01.611-.037c.47 0 .617.173.444.519zm10.259 1.482c0 .617-.179 1.092-.537 1.426-.358.333-.734.5-1.13.5-.74 0-1.11-.358-1.11-1.074 0-.346.19-.673.573-.982.383-.308.574-.537.574-.685 0-.247-.123-.37-.37-.37-.84 0-1.864 1.26-3.074 3.777-1.11 2.37-1.667 4.111-1.667 5.223 0 .542.235.814.704.814 2.239 0 7.264-5.954 3.02-1.057-1 1.153-2.403 1.946-3.39 1.946-1.605 0-2.408-1.025-2.408-3.074 0-1.778.784-3.63 2.352-5.555 1.568-1.926 3.105-2.89 4.611-2.89 1.235 0 1.852.667 1.852 2z" fill="#7B7A91" stroke="#7B7A91" stroke-width=".21" stroke-miterlimit="22.926"/></svg>