<svg width="60" height="60" fill="none" xmlns="http://www.w3.org/2000/svg"><circle cx="30" cy="30" r="30" fill="#D1CFD3"/><path fill-rule="evenodd" clip-rule="evenodd" d="M22.1 15.5l2.1 6.3V26h1.4v-4.2l2.1-6.3h-1.4l-1.4 4.2-1.4-4.2h-1.4zm7.7 2.8c-.746 0-1.113.118-1.57.492-.437.37-.557.654-.53 1.608v3.5c0 .697.115 1.157.536 1.564.438.408.85.536 1.564.536.747 0 1.154-.128 1.575-.536.438-.391.525-.867.525-1.564v-3.5c0-.618-.11-1.203-.533-1.594-.438-.402-.889-.506-1.567-.506zm3.5 0v6.3c0 .68.686 1.4 1.4 1.4.714 0 1.091-.358 1.4-.7v.7h1.4v-7.7h-1.4v5.6c-.008.479-.571.7-.7.7-.145 0-.7-.03-.7-.7v-5.6h-1.4zm-3.5 1.4c.21 0 .7-.003.7.7v3.5c0 .678-.473.7-.7.7-.21 0-.7-.008-.7-.7v-3.5c0-.572.304-.7.7-.7zM20 27.4c-2.516 0-4.2 1.668-4.2 4.2v6.65c0 2.532 1.684 4.55 4.2 4.55h21c2.516 0 4.2-1.668 4.2-4.2v-7c0-2.532-1.684-4.2-4.2-4.2H20zm1.4 2.8h4.2v1.4h-1.4V40h-1.4v-8.4h-1.4v-1.4zm9.8 0h1.4V33c.161-.252.402-.451.632-.563.224-.115.45-.18.68-.18.455 0 .81.163 1.053.47.244.309.435.719.435 1.323v4.2c0 .52-.175.842-.405 1.118-.224.276-.56.627-.995.632-.736.008-1.13-.386-1.4-.7v.7h-1.4v-9.8zm-5.6 2.1H27v5.6c0 .161.189.706.7.7.569-.006.574-.536.7-.7v-5.6h1.4V40h-1.4v-.7c-.26.306-.394.402-.686.547-.29.164-.585.153-.859.153-.339 0-.724-.306-.905-.536-.161-.21-.35-.426-.35-.864v-6.3zm12.74 0c.664 0 1.131.142 1.484.514.361.372.476.807.476 1.507V36.5h-2.8v1.083c0 .39.052.64.153.787.096.162.29.233.547.23.284-.003.465-.06.56-.189.099-.114.14-.44.14-.861v-.35h1.4v.416c0 .763-.06 1.331-.437 1.703-.356.391-.911.572-1.638.572-.665 0-1.184-.197-1.556-.602-.372-.405-.566-.96-.566-1.673V34.32c0-.635.221-1.105.629-1.523.328-.337.943-.498 1.608-.498zm-5.04 1.05c-.386 0-.694.347-.7.7v4.2c.005.202.314.35.7.35.386 0 .7-.298.7-.684V34.4c0-.7-.314-1.05-.7-1.05zm4.9.35a.712.712 0 00-.7.7v.7h1.4v-.7c0-.43-.314-.7-.7-.7z" fill="#000"/></svg>